<svg width="75" height="15" viewBox="0 0 75 15" fill="none" xmlns="http://www.w3.org/2000/svg">
<path d="M7.5 0C3.36504 0 0 3.36504 0 7.5C0 11.635 3.36504 15 7.5 15C11.635 15 15 11.635 15 7.5C15 3.36504 11.635 0 7.5 0ZM7.5 12.5C4.74246 12.5 2.49996 10.2575 2.49996 7.5C2.49996 4.74246 4.74246 2.49996 7.5 2.49996C10.2575 2.49996 12.5 4.74246 12.5 7.5C12.5 10.2575 10.2575 12.5 7.5 12.5Z" fill="white"/>
<path d="M35 7.5C35 11.6423 31.6423 15 27.5 15C23.3577 15 20 11.6423 20 7.5C20 3.3577 23.3577 0 27.5 0C31.6423 0 35 3.3577 35 7.5Z" fill="white"/>
<path d="M55 7.5C55 11.6423 51.6423 15 47.5 15C43.3577 15 40 11.6423 40 7.5C40 3.3577 43.3577 0 47.5 0C51.6423 0 55 3.3577 55 7.5Z" fill="white"/>
<path d="M75 7.5C75 11.6423 71.6423 15 67.5 15C63.3577 15 60 11.6423 60 7.5C60 3.3577 63.3577 0 67.5 0C71.6423 0 75 3.3577 75 7.5Z" fill="white"/>
</svg>
